<mxfile host="app.diagrams.net" agent="Mozilla/5.0 (Windows NT 10.0; Win64; x64) AppleWebKit/537.36 (KHTML, like Gecko) Chrome/133.0.0.0 Safari/537.36 OPR/118.0.0.0" version="27.1.1">
  <diagram name="PÃ¡gina-1" id="NlVbPb5BsTUSKrupCrtl">
    <mxGraphModel dx="1001" dy="572" grid="1" gridSize="10" guides="1" tooltips="1" connect="1" arrows="1" fold="1" page="1" pageScale="1" pageWidth="827" pageHeight="1169" math="0" shadow="0">
      <root>
        <mxCell id="0" />
        <mxCell id="1" parent="0" />
        <mxCell id="8JUDyOMnMueMjahR8d85-9" value="" style="rounded=0;whiteSpace=wrap;html=1;fillColor=#bac8d3;strokeColor=#23445d;" parent="1" vertex="1">
          <mxGeometry x="40" width="760" height="440" as="geometry" />
        </mxCell>
        <mxCell id="8JUDyOMnMueMjahR8d85-2" value="" style="rounded=0;whiteSpace=wrap;html=1;fillStyle=auto;fillColor=#b0e3e6;strokeColor=#0e8088;" parent="1" vertex="1">
          <mxGeometry x="40" width="760" height="60" as="geometry" />
        </mxCell>
        <mxCell id="8JUDyOMnMueMjahR8d85-3" value="" style="rounded=1;whiteSpace=wrap;html=1;fillColor=#d0cee2;strokeColor=#56517e;" parent="1" vertex="1">
          <mxGeometry x="94" y="5" width="50" height="50" as="geometry" />
        </mxCell>
        <mxCell id="8JUDyOMnMueMjahR8d85-5" value="Logo" style="text;html=1;align=center;verticalAlign=middle;whiteSpace=wrap;rounded=0;" parent="1" vertex="1">
          <mxGeometry x="150" y="15" width="60" height="30" as="geometry" />
        </mxCell>
        <mxCell id="8JUDyOMnMueMjahR8d85-6" value="Inicio&amp;nbsp; Productos&amp;nbsp; Sobre nosotros&amp;nbsp; opiniones&amp;nbsp; Contacto" style="text;html=1;align=center;verticalAlign=middle;whiteSpace=wrap;rounded=0;" parent="1" vertex="1">
          <mxGeometry x="340" y="15" width="390" height="30" as="geometry" />
        </mxCell>
        <mxCell id="8JUDyOMnMueMjahR8d85-8" value="" style="rounded=0;whiteSpace=wrap;html=1;fillColor=#b0e3e6;strokeColor=#0e8088;" parent="1" vertex="1">
          <mxGeometry x="92" y="170" width="630" height="190" as="geometry" />
        </mxCell>
        <mxCell id="8JUDyOMnMueMjahR8d85-10" value="" style="rounded=0;whiteSpace=wrap;html=1;fillColor=#b1ddf0;strokeColor=#10739e;" parent="1" vertex="1">
          <mxGeometry x="92" y="170" width="320" height="189.41" as="geometry" />
        </mxCell>
        <mxCell id="8JUDyOMnMueMjahR8d85-11" value="" style="rounded=0;whiteSpace=wrap;html=1;fillColor=#fad7ac;strokeColor=#b46504;" parent="1" vertex="1">
          <mxGeometry x="124" y="330" width="100" height="20" as="geometry" />
        </mxCell>
        <mxCell id="8JUDyOMnMueMjahR8d85-12" value="" style="rounded=0;whiteSpace=wrap;html=1;fillColor=#bac8d3;strokeColor=#23445d;" parent="1" vertex="1">
          <mxGeometry x="90" y="180" width="322" height="130" as="geometry" />
        </mxCell>
        <mxCell id="8JUDyOMnMueMjahR8d85-13" value="Titulo&lt;br&gt;Parrafo" style="text;html=1;align=center;verticalAlign=middle;whiteSpace=wrap;rounded=0;" parent="1" vertex="1">
          <mxGeometry x="104" y="205" width="60" height="30" as="geometry" />
        </mxCell>
        <mxCell id="8JUDyOMnMueMjahR8d85-14" value="Boton" style="text;html=1;align=center;verticalAlign=middle;whiteSpace=wrap;rounded=0;" parent="1" vertex="1">
          <mxGeometry x="144" y="325" width="60" height="30" as="geometry" />
        </mxCell>
        <mxCell id="8JUDyOMnMueMjahR8d85-15" value="" style="rounded=0;whiteSpace=wrap;html=1;fillColor=#bac8d3;strokeColor=#23445d;" parent="1" vertex="1">
          <mxGeometry x="40" y="440" width="760" height="120" as="geometry" />
        </mxCell>
        <mxCell id="8JUDyOMnMueMjahR8d85-16" value="" style="rounded=1;whiteSpace=wrap;html=1;fillColor=#d0cee2;strokeColor=#56517e;" parent="1" vertex="1">
          <mxGeometry x="99" y="475" width="100" height="50" as="geometry" />
        </mxCell>
        <mxCell id="8JUDyOMnMueMjahR8d85-20" value="" style="rounded=1;whiteSpace=wrap;html=1;fillColor=#d0cee2;strokeColor=#56517e;" parent="1" vertex="1">
          <mxGeometry x="219" y="475" width="100" height="50" as="geometry" />
        </mxCell>
        <mxCell id="8JUDyOMnMueMjahR8d85-21" value="" style="rounded=1;whiteSpace=wrap;html=1;fillColor=#d0cee2;strokeColor=#56517e;" parent="1" vertex="1">
          <mxGeometry x="349" y="475" width="100" height="50" as="geometry" />
        </mxCell>
        <mxCell id="8JUDyOMnMueMjahR8d85-22" value="" style="rounded=1;whiteSpace=wrap;html=1;fillColor=#d0cee2;strokeColor=#56517e;" parent="1" vertex="1">
          <mxGeometry x="479" y="475" width="100" height="50" as="geometry" />
        </mxCell>
        <mxCell id="8JUDyOMnMueMjahR8d85-23" value="" style="rounded=1;whiteSpace=wrap;html=1;fillColor=#d0cee2;strokeColor=#56517e;" parent="1" vertex="1">
          <mxGeometry x="609" y="475" width="100" height="50" as="geometry" />
        </mxCell>
        <mxCell id="8JUDyOMnMueMjahR8d85-24" value="Marca" style="text;html=1;align=center;verticalAlign=middle;whiteSpace=wrap;rounded=0;fillColor=none;" parent="1" vertex="1">
          <mxGeometry x="119" y="485" width="60" height="30" as="geometry" />
        </mxCell>
        <mxCell id="8JUDyOMnMueMjahR8d85-25" value="Marca" style="text;html=1;align=center;verticalAlign=middle;whiteSpace=wrap;rounded=0;" parent="1" vertex="1">
          <mxGeometry x="239" y="485" width="60" height="30" as="geometry" />
        </mxCell>
        <mxCell id="8JUDyOMnMueMjahR8d85-26" value="Marca" style="text;html=1;align=center;verticalAlign=middle;whiteSpace=wrap;rounded=0;fillColor=none;" parent="1" vertex="1">
          <mxGeometry x="369" y="485" width="60" height="30" as="geometry" />
        </mxCell>
        <mxCell id="8JUDyOMnMueMjahR8d85-27" value="Marca" style="text;html=1;align=center;verticalAlign=middle;whiteSpace=wrap;rounded=0;" parent="1" vertex="1">
          <mxGeometry x="499" y="485" width="60" height="30" as="geometry" />
        </mxCell>
        <mxCell id="8JUDyOMnMueMjahR8d85-28" value="Marca" style="text;html=1;align=center;verticalAlign=middle;whiteSpace=wrap;rounded=0;" parent="1" vertex="1">
          <mxGeometry x="629" y="485" width="60" height="30" as="geometry" />
        </mxCell>
        <mxCell id="8JUDyOMnMueMjahR8d85-29" value="" style="rounded=0;whiteSpace=wrap;html=1;fillColor=#bac8d3;strokeColor=#23445d;" parent="1" vertex="1">
          <mxGeometry x="40" y="555" width="760" height="445" as="geometry" />
        </mxCell>
        <mxCell id="8JUDyOMnMueMjahR8d85-30" value="" style="rounded=0;whiteSpace=wrap;html=1;fillColor=#bac8d3;strokeColor=#23445d;" parent="1" vertex="1">
          <mxGeometry x="50" y="560" width="740" height="430" as="geometry" />
        </mxCell>
        <mxCell id="8JUDyOMnMueMjahR8d85-31" value="" style="rounded=0;whiteSpace=wrap;html=1;fillColor=#fad9d5;strokeColor=#ae4132;" parent="1" vertex="1">
          <mxGeometry x="60" y="570" width="720" height="80" as="geometry" />
        </mxCell>
        <mxCell id="8JUDyOMnMueMjahR8d85-32" value="" style="rounded=0;whiteSpace=wrap;html=1;fillColor=#fad7ac;strokeColor=#b46504;" parent="1" vertex="1">
          <mxGeometry x="60" y="660" width="230" height="320" as="geometry" />
        </mxCell>
        <mxCell id="8JUDyOMnMueMjahR8d85-33" value="" style="rounded=0;whiteSpace=wrap;html=1;fillColor=#fad7ac;strokeColor=#b46504;" parent="1" vertex="1">
          <mxGeometry x="305" y="660" width="230" height="320" as="geometry" />
        </mxCell>
        <mxCell id="8JUDyOMnMueMjahR8d85-34" value="" style="rounded=0;whiteSpace=wrap;html=1;fillColor=#fad7ac;strokeColor=#b46504;" parent="1" vertex="1">
          <mxGeometry x="550" y="660" width="230" height="320" as="geometry" />
        </mxCell>
        <mxCell id="8JUDyOMnMueMjahR8d85-40" value="" style="rounded=0;whiteSpace=wrap;html=1;fillColor=#bac8d3;strokeColor=#23445d;" parent="1" vertex="1">
          <mxGeometry x="40" y="1000" width="760" height="380" as="geometry" />
        </mxCell>
        <mxCell id="8JUDyOMnMueMjahR8d85-41" value="" style="rounded=0;whiteSpace=wrap;html=1;fillColor=#b1ddf0;strokeColor=#10739e;" parent="1" vertex="1">
          <mxGeometry x="50" y="1010" width="740" height="80" as="geometry" />
        </mxCell>
        <mxCell id="8JUDyOMnMueMjahR8d85-42" value="" style="rounded=0;whiteSpace=wrap;html=1;fillColor=#fad7ac;strokeColor=#b46504;" parent="1" vertex="1">
          <mxGeometry x="50" y="1100" width="370" height="120" as="geometry" />
        </mxCell>
        <mxCell id="8JUDyOMnMueMjahR8d85-43" value="" style="rounded=0;whiteSpace=wrap;html=1;fillColor=#fad7ac;strokeColor=#b46504;" parent="1" vertex="1">
          <mxGeometry x="429" y="1100" width="361" height="120" as="geometry" />
        </mxCell>
        <mxCell id="8JUDyOMnMueMjahR8d85-44" value="" style="rounded=0;whiteSpace=wrap;html=1;fillColor=#fad7ac;strokeColor=#b46504;" parent="1" vertex="1">
          <mxGeometry x="60" y="1230" width="150" height="70" as="geometry" />
        </mxCell>
        <mxCell id="8JUDyOMnMueMjahR8d85-45" value="" style="rounded=0;whiteSpace=wrap;html=1;fillColor=#fad7ac;strokeColor=#b46504;" parent="1" vertex="1">
          <mxGeometry x="250" y="1234" width="150" height="70" as="geometry" />
        </mxCell>
        <mxCell id="8JUDyOMnMueMjahR8d85-46" value="" style="rounded=0;whiteSpace=wrap;html=1;fillColor=#fad7ac;strokeColor=#b46504;" parent="1" vertex="1">
          <mxGeometry x="449" y="1234" width="150" height="70" as="geometry" />
        </mxCell>
        <mxCell id="8JUDyOMnMueMjahR8d85-47" value="" style="rounded=0;whiteSpace=wrap;html=1;fillColor=#fad7ac;strokeColor=#b46504;" parent="1" vertex="1">
          <mxGeometry x="640" y="1234" width="150" height="70" as="geometry" />
        </mxCell>
        <mxCell id="8JUDyOMnMueMjahR8d85-48" value="" style="rounded=0;whiteSpace=wrap;html=1;fillColor=#bac8d3;strokeColor=#23445d;" parent="1" vertex="1">
          <mxGeometry x="40" y="1381" width="760" height="240" as="geometry" />
        </mxCell>
        <mxCell id="8JUDyOMnMueMjahR8d85-49" value="" style="rounded=0;whiteSpace=wrap;html=1;fillColor=#b1ddf0;strokeColor=#10739e;" parent="1" vertex="1">
          <mxGeometry x="50" y="1391" width="740" height="220" as="geometry" />
        </mxCell>
        <mxCell id="8JUDyOMnMueMjahR8d85-50" value="" style="rounded=0;whiteSpace=wrap;html=1;fillColor=#bac8d3;strokeColor=#23445d;" parent="1" vertex="1">
          <mxGeometry x="60" y="1401" width="720" height="200" as="geometry" />
        </mxCell>
        <mxCell id="8JUDyOMnMueMjahR8d85-51" value="" style="ellipse;whiteSpace=wrap;html=1;aspect=fixed;fillColor=#d0cee2;strokeColor=#56517e;" parent="1" vertex="1">
          <mxGeometry x="374" y="1441" width="80" height="80" as="geometry" />
        </mxCell>
        <mxCell id="8JUDyOMnMueMjahR8d85-53" value="" style="rounded=0;whiteSpace=wrap;html=1;fillColor=#fad7ac;strokeColor=#b46504;" parent="1" vertex="1">
          <mxGeometry x="264" y="1531" width="300" height="40" as="geometry" />
        </mxCell>
        <mxCell id="8JUDyOMnMueMjahR8d85-54" value="" style="rounded=0;whiteSpace=wrap;html=1;fillColor=#bac8d3;strokeColor=#23445d;" parent="1" vertex="1">
          <mxGeometry x="40" y="1621" width="760" height="350" as="geometry" />
        </mxCell>
        <mxCell id="8JUDyOMnMueMjahR8d85-55" value="" style="rounded=0;whiteSpace=wrap;html=1;fillColor=#fad7ac;strokeColor=#b46504;" parent="1" vertex="1">
          <mxGeometry x="50" y="1631" width="740" height="60" as="geometry" />
        </mxCell>
        <mxCell id="8JUDyOMnMueMjahR8d85-56" value="" style="rounded=0;whiteSpace=wrap;html=1;fillColor=#b1ddf0;strokeColor=#10739e;" parent="1" vertex="1">
          <mxGeometry x="50" y="1761" width="350" height="20" as="geometry" />
        </mxCell>
        <mxCell id="8JUDyOMnMueMjahR8d85-57" value="" style="rounded=0;whiteSpace=wrap;html=1;fillColor=#b1ddf0;strokeColor=#10739e;" parent="1" vertex="1">
          <mxGeometry x="50" y="1791" width="350" height="20" as="geometry" />
        </mxCell>
        <mxCell id="8JUDyOMnMueMjahR8d85-58" value="" style="rounded=0;whiteSpace=wrap;html=1;fillColor=#b1ddf0;strokeColor=#10739e;" parent="1" vertex="1">
          <mxGeometry x="50" y="1821" width="350" height="80" as="geometry" />
        </mxCell>
        <mxCell id="8JUDyOMnMueMjahR8d85-59" value="" style="rounded=0;whiteSpace=wrap;html=1;fillColor=#fad7ac;strokeColor=#b46504;" parent="1" vertex="1">
          <mxGeometry x="50" y="1911" width="80" height="40" as="geometry" />
        </mxCell>
        <mxCell id="8JUDyOMnMueMjahR8d85-60" value="" style="rounded=0;whiteSpace=wrap;html=1;fillColor=#d0cee2;strokeColor=#56517e;" parent="1" vertex="1">
          <mxGeometry x="420" y="1701" width="350" height="210" as="geometry" />
        </mxCell>
        <mxCell id="8JUDyOMnMueMjahR8d85-61" value="" style="rounded=0;whiteSpace=wrap;html=1;fillColor=#bac8d3;strokeColor=#23445d;" parent="1" vertex="1">
          <mxGeometry x="40" y="1971" width="760" height="130" as="geometry" />
        </mxCell>
        <mxCell id="8JUDyOMnMueMjahR8d85-62" value="" style="rounded=0;whiteSpace=wrap;html=1;fillColor=#d0cee2;strokeColor=#56517e;" parent="1" vertex="1">
          <mxGeometry x="50" y="1981" width="740" height="110" as="geometry" />
        </mxCell>
        <mxCell id="8JUDyOMnMueMjahR8d85-63" value="" style="rounded=0;whiteSpace=wrap;html=1;fillColor=#b1ddf0;strokeColor=#10739e;" parent="1" vertex="1">
          <mxGeometry x="59" y="1991" width="151" height="90" as="geometry" />
        </mxCell>
        <mxCell id="8JUDyOMnMueMjahR8d85-64" value="" style="rounded=0;whiteSpace=wrap;html=1;fillColor=#b1ddf0;strokeColor=#10739e;" parent="1" vertex="1">
          <mxGeometry x="239" y="1991" width="151" height="90" as="geometry" />
        </mxCell>
        <mxCell id="8JUDyOMnMueMjahR8d85-65" value="" style="rounded=0;whiteSpace=wrap;html=1;fillColor=#b1ddf0;strokeColor=#10739e;" parent="1" vertex="1">
          <mxGeometry x="414" y="1991" width="151" height="90" as="geometry" />
        </mxCell>
        <mxCell id="8JUDyOMnMueMjahR8d85-66" value="" style="rounded=0;whiteSpace=wrap;html=1;fillColor=#b1ddf0;strokeColor=#10739e;" parent="1" vertex="1">
          <mxGeometry x="619" y="1991" width="151" height="90" as="geometry" />
        </mxCell>
        <mxCell id="8JUDyOMnMueMjahR8d85-67" value="Tirulo" style="text;html=1;align=center;verticalAlign=middle;whiteSpace=wrap;rounded=0;" parent="1" vertex="1">
          <mxGeometry x="369" y="595" width="60" height="30" as="geometry" />
        </mxCell>
        <mxCell id="8JUDyOMnMueMjahR8d85-68" value="Imagen" style="text;html=1;align=center;verticalAlign=middle;whiteSpace=wrap;rounded=0;" parent="1" vertex="1">
          <mxGeometry x="130" y="810" width="60" height="30" as="geometry" />
        </mxCell>
        <mxCell id="8JUDyOMnMueMjahR8d85-69" value="Imagen" style="text;html=1;align=center;verticalAlign=middle;whiteSpace=wrap;rounded=0;" parent="1" vertex="1">
          <mxGeometry x="389" y="805" width="60" height="30" as="geometry" />
        </mxCell>
        <mxCell id="8JUDyOMnMueMjahR8d85-70" value="Imagen" style="text;html=1;align=center;verticalAlign=middle;whiteSpace=wrap;rounded=0;" parent="1" vertex="1">
          <mxGeometry x="649" y="800" width="60" height="30" as="geometry" />
        </mxCell>
        <mxCell id="8JUDyOMnMueMjahR8d85-71" value="Imagen" style="text;html=1;align=center;verticalAlign=middle;whiteSpace=wrap;rounded=0;" parent="1" vertex="1">
          <mxGeometry x="560" y="1791" width="60" height="30" as="geometry" />
        </mxCell>
        <mxCell id="8JUDyOMnMueMjahR8d85-72" value="Imagen" style="text;html=1;align=center;verticalAlign=middle;whiteSpace=wrap;rounded=0;" parent="1" vertex="1">
          <mxGeometry x="384" y="1466" width="60" height="30" as="geometry" />
        </mxCell>
        <mxCell id="8JUDyOMnMueMjahR8d85-73" value="Titulo" style="text;html=1;align=center;verticalAlign=middle;whiteSpace=wrap;rounded=0;" parent="1" vertex="1">
          <mxGeometry x="360" y="1646" width="60" height="30" as="geometry" />
        </mxCell>
        <mxCell id="8JUDyOMnMueMjahR8d85-74" value="BotÃ³n" style="text;html=1;align=center;verticalAlign=middle;whiteSpace=wrap;rounded=0;fillColor=none;" parent="1" vertex="1">
          <mxGeometry x="60" y="1916" width="60" height="30" as="geometry" />
        </mxCell>
        <mxCell id="8JUDyOMnMueMjahR8d85-76" value="" style="rounded=0;whiteSpace=wrap;html=1;fillColor=#fad7ac;strokeColor=#b46504;" parent="1" vertex="1">
          <mxGeometry x="50" y="1711" width="350" height="30" as="geometry" />
        </mxCell>
        <mxCell id="8JUDyOMnMueMjahR8d85-77" value="Text" style="text;html=1;align=center;verticalAlign=middle;whiteSpace=wrap;rounded=0;" parent="1" vertex="1">
          <mxGeometry x="170" y="1711" width="60" height="30" as="geometry" />
        </mxCell>
        <mxCell id="8JUDyOMnMueMjahR8d85-78" value="Titulo" style="text;html=1;align=center;verticalAlign=middle;whiteSpace=wrap;rounded=0;" parent="1" vertex="1">
          <mxGeometry x="379" y="1035" width="60" height="30" as="geometry" />
        </mxCell>
        <mxCell id="8JUDyOMnMueMjahR8d85-80" value="Text" style="text;html=1;align=center;verticalAlign=middle;whiteSpace=wrap;rounded=0;" parent="1" vertex="1">
          <mxGeometry x="180" y="1139" width="60" height="30" as="geometry" />
        </mxCell>
        <mxCell id="8JUDyOMnMueMjahR8d85-81" value="Text" style="text;html=1;align=center;verticalAlign=middle;whiteSpace=wrap;rounded=0;" parent="1" vertex="1">
          <mxGeometry x="589" y="1145" width="60" height="30" as="geometry" />
        </mxCell>
        <mxCell id="8JUDyOMnMueMjahR8d85-82" value="Text" style="text;html=1;align=center;verticalAlign=middle;whiteSpace=wrap;rounded=0;" parent="1" vertex="1">
          <mxGeometry x="105" y="1254" width="60" height="30" as="geometry" />
        </mxCell>
        <mxCell id="8JUDyOMnMueMjahR8d85-83" value="Text" style="text;html=1;align=center;verticalAlign=middle;whiteSpace=wrap;rounded=0;" parent="1" vertex="1">
          <mxGeometry x="300" y="1260" width="60" height="30" as="geometry" />
        </mxCell>
        <mxCell id="8JUDyOMnMueMjahR8d85-84" value="Text" style="text;html=1;align=center;verticalAlign=middle;whiteSpace=wrap;rounded=0;" parent="1" vertex="1">
          <mxGeometry x="499" y="1254" width="60" height="30" as="geometry" />
        </mxCell>
        <mxCell id="8JUDyOMnMueMjahR8d85-85" value="Text" style="text;html=1;align=center;verticalAlign=middle;whiteSpace=wrap;rounded=0;" parent="1" vertex="1">
          <mxGeometry x="689" y="1260" width="60" height="30" as="geometry" />
        </mxCell>
        <mxCell id="8JUDyOMnMueMjahR8d85-86" value="Text" style="text;html=1;align=center;verticalAlign=middle;whiteSpace=wrap;rounded=0;" parent="1" vertex="1">
          <mxGeometry x="384" y="1536" width="60" height="30" as="geometry" />
        </mxCell>
        <mxCell id="8JUDyOMnMueMjahR8d85-87" value="Text" style="text;html=1;align=center;verticalAlign=middle;whiteSpace=wrap;rounded=0;" parent="1" vertex="1">
          <mxGeometry x="99" y="2021" width="60" height="30" as="geometry" />
        </mxCell>
        <mxCell id="8JUDyOMnMueMjahR8d85-88" value="Text" style="text;html=1;align=center;verticalAlign=middle;whiteSpace=wrap;rounded=0;" parent="1" vertex="1">
          <mxGeometry x="289" y="2021" width="60" height="30" as="geometry" />
        </mxCell>
        <mxCell id="8JUDyOMnMueMjahR8d85-89" value="Text" style="text;html=1;align=center;verticalAlign=middle;whiteSpace=wrap;rounded=0;" parent="1" vertex="1">
          <mxGeometry x="459.5" y="2021" width="60" height="30" as="geometry" />
        </mxCell>
        <mxCell id="8JUDyOMnMueMjahR8d85-90" value="Text" style="text;html=1;align=center;verticalAlign=middle;whiteSpace=wrap;rounded=0;" parent="1" vertex="1">
          <mxGeometry x="670" y="2021" width="60" height="30" as="geometry" />
        </mxCell>
        <mxCell id="8JUDyOMnMueMjahR8d85-198" value="" style="rounded=0;whiteSpace=wrap;html=1;fillColor=#fad9d5;strokeColor=#ae4132;" parent="1" vertex="1">
          <mxGeometry x="354" y="1330" width="120" height="40" as="geometry" />
        </mxCell>
        <mxCell id="8JUDyOMnMueMjahR8d85-199" value="Boton" style="text;html=1;align=center;verticalAlign=middle;whiteSpace=wrap;rounded=0;" parent="1" vertex="1">
          <mxGeometry x="384" y="1335" width="60" height="30" as="geometry" />
        </mxCell>
      </root>
    </mxGraphModel>
  </diagram>
</mxfile>
